<svg xmlns="http://www.w3.org/2000/svg" xmlns:xlink="http://www.w3.org/1999/xlink" width="136" height="136" viewBox="0 0 136 136">
  <defs>
    <filter id="Path_79344" x="0" y="0" width="136" height="136" filterUnits="userSpaceOnUse">
      <feOffset dy="2" input="SourceAlpha"/>
      <feGaussianBlur stdDeviation="6" result="blur"/>
      <feFlood flood-opacity="0.161"/>
      <feComposite operator="in" in2="blur"/>
      <feComposite in="SourceGraphic"/>
    </filter>
  </defs>
  <g id="google_review" transform="translate(19164 7679)">
    <g id="Group_166185" data-name="Group 166185" transform="translate(-19867 -9033)">
      <g transform="matrix(1, 0, 0, 1, 703, 1354)" filter="url(#Path_79344)">
        <path id="Path_79344-2" data-name="Path 79344" d="M5,0H95a5,5,0,0,1,5,5V95a5,5,0,0,1-5,5H5a5,5,0,0,1-5-5V5A5,5,0,0,1,5,0Z" transform="translate(18 16)" fill="none"/>
      </g>
    </g>
    <g id="_5" data-name="5" transform="translate(-19813 -9418.709)">
      <g id="Group_171416" data-name="Group 171416" transform="translate(682 1825.673)">
        <g id="Group_171415" data-name="Group 171415" transform="translate(0 0)">
          <path id="Path_72708" data-name="Path 72708" d="M515.99,408.31l-3.529-.6-1.659-3.172a.652.652,0,0,0-1.148,0L508,407.715l-3.529.6a.642.642,0,0,0-.35,1.085l2.507,2.556-.525,3.543a.641.641,0,0,0,.259.616.65.65,0,0,0,.665.056l3.207-1.6,3.207,1.6a.694.694,0,0,0,.287.07.629.629,0,0,0,.378-.126.64.64,0,0,0,.259-.616l-.525-3.543,2.507-2.556a.652.652,0,0,0,.154-.651.673.673,0,0,0-.511-.434Zm-3.3,2.969a.631.631,0,0,0-.175.546l.392,2.64-2.388-1.19a.637.637,0,0,0-.574,0l-2.388,1.19.392-2.64a.652.652,0,0,0-.175-.546l-1.87-1.9,2.626-.441A.655.655,0,0,0,509,408.6l1.232-2.367,1.232,2.367a.636.636,0,0,0,.462.336l2.626.441C514.555,409.374,512.692,411.279,512.692,411.279Z" transform="translate(-503.935 -404.2)" fill="rgba(252,79,25,0.99)" stroke="rgba(252,79,25,0.99)" stroke-width="0.5"/>
          <path id="Path_72709" data-name="Path 72709" d="M714.183,408.31l-3.529-.6L709,404.543a.652.652,0,0,0-1.148,0l-1.652,3.172-3.529.6a.642.642,0,0,0-.35,1.085l2.507,2.556-.525,3.543a.64.64,0,0,0,.259.616.65.65,0,0,0,.665.056l3.207-1.6,3.207,1.6a.693.693,0,0,0,.287.07.629.629,0,0,0,.378-.126.64.64,0,0,0,.259-.616l-.525-3.543,2.507-2.556a.652.652,0,0,0,.154-.651.683.683,0,0,0-.518-.434Zm-3.3,2.969a.631.631,0,0,0-.175.546l.392,2.64-2.388-1.19a.693.693,0,0,0-.287-.07.6.6,0,0,0-.287.07l-2.388,1.19.392-2.64a.653.653,0,0,0-.175-.546l-1.87-1.9,2.626-.441a.655.655,0,0,0,.462-.336l1.232-2.367,1.232,2.367a.636.636,0,0,0,.462.336l2.626.441-1.856,1.9Z" transform="translate(-688.135 -404.2)" fill="rgba(252,79,25,0.99)" stroke="rgba(252,79,25,0.99)" stroke-width="0.5"/>
          <path id="Path_72710" data-name="Path 72710" d="M912.887,408.744a.629.629,0,0,0-.5-.434l-3.529-.6-1.652-3.172a.652.652,0,0,0-1.148,0l-1.652,3.172-3.529.6a.642.642,0,0,0-.35,1.085l2.507,2.556-.525,3.543a.64.64,0,0,0,.259.616.65.65,0,0,0,.665.056l3.207-1.6,3.207,1.6a.694.694,0,0,0,.287.07.629.629,0,0,0,.378-.126.64.64,0,0,0,.259-.616l-.525-3.543,2.507-2.556a.68.68,0,0,0,.14-.651Zm-3.809,2.535a.632.632,0,0,0-.175.546l.392,2.64-2.388-1.19a.693.693,0,0,0-.287-.07.6.6,0,0,0-.287.07l-2.388,1.19.392-2.64a.652.652,0,0,0-.175-.546l-1.87-1.9,2.626-.441a.655.655,0,0,0,.462-.336l1.232-2.367,1.232,2.367a.636.636,0,0,0,.462.336l2.626.441-1.856,1.9Z" transform="translate(-872.336 -404.2)" fill="rgba(252,79,25,0.99)" stroke="rgba(252,79,25,0.99)" stroke-width="0.5"/>
          <path id="Path_87613" data-name="Path 87613" d="M912.887,408.744a.629.629,0,0,0-.5-.434l-3.529-.6-1.652-3.172a.652.652,0,0,0-1.148,0l-1.652,3.172-3.529.6a.642.642,0,0,0-.35,1.085l2.507,2.556-.525,3.543a.64.64,0,0,0,.259.616.65.65,0,0,0,.665.056l3.207-1.6,3.207,1.6a.694.694,0,0,0,.287.07.629.629,0,0,0,.378-.126.64.64,0,0,0,.259-.616l-.525-3.543,2.507-2.556a.68.68,0,0,0,.14-.651Zm-3.809,2.535a.632.632,0,0,0-.175.546l.392,2.64-2.388-1.19a.693.693,0,0,0-.287-.07.6.6,0,0,0-.287.07l-2.388,1.19.392-2.64a.652.652,0,0,0-.175-.546l-1.87-1.9,2.626-.441a.655.655,0,0,0,.462-.336l1.232-2.367,1.232,2.367a.636.636,0,0,0,.462.336l2.626.441-1.856,1.9Z" transform="translate(-857.335 -404.2)" fill="rgba(252,79,25,0.99)" stroke="rgba(252,79,25,0.99)" stroke-width="0.5"/>
          <path id="Path_87614" data-name="Path 87614" d="M912.887,408.744a.629.629,0,0,0-.5-.434l-3.529-.6-1.652-3.172a.652.652,0,0,0-1.148,0l-1.652,3.172-3.529.6a.642.642,0,0,0-.35,1.085l2.507,2.556-.525,3.543a.64.64,0,0,0,.259.616.65.65,0,0,0,.665.056l3.207-1.6,3.207,1.6a.694.694,0,0,0,.287.07.629.629,0,0,0,.378-.126.64.64,0,0,0,.259-.616l-.525-3.543,2.507-2.556a.68.68,0,0,0,.14-.651Zm-3.809,2.535a.632.632,0,0,0-.175.546l.392,2.64-2.388-1.19a.693.693,0,0,0-.287-.07.6.6,0,0,0-.287.07l-2.388,1.19.392-2.64a.652.652,0,0,0-.175-.546l-1.87-1.9,2.626-.441a.655.655,0,0,0,.462-.336l1.232-2.367,1.232,2.367a.636.636,0,0,0,.462.336l2.626.441-1.856,1.9Z" transform="translate(-843.335 -404.2)" fill="rgba(252,79,25,0.99)" stroke="rgba(252,79,25,0.99)" stroke-width="0.5"/>
        </g>
      </g>
      <g id="search" transform="translate(693.001 1773.709)">
        <g id="Group_171417" data-name="Group 171417">
          <path id="Path_87612" data-name="Path 87612" d="M47.633,19.538a.951.951,0,0,0-.934-.774H24.534a.951.951,0,0,0-.951.951v9.129a.951.951,0,0,0,.951.951H35.418a12.77,12.77,0,0,1-23.349-1.289A12.768,12.768,0,0,1,30.776,13.19a.951.951,0,0,0,1.106-.071L39.358,7a.951.951,0,0,0,.005-1.467,23.982,23.982,0,1,0,8.27,14.007ZM24.027,1.9a22.159,22.159,0,0,1,13.21,4.376l-6.044,4.948A14.673,14.673,0,0,0,10.647,18.01l-5.9-4.829A22.14,22.14,0,0,1,24.027,1.9ZM1.9,24.027a22,22,0,0,1,1.964-9.11L9.949,19.9a14.729,14.729,0,0,0,.113,8.629L4.017,33.475A22.192,22.192,0,0,1,1.9,24.027ZM24.027,46.151A22.116,22.116,0,0,1,4.921,35.192L10.8,30.377a14.671,14.671,0,0,0,20.048,6.634l6.087,4.983A22.177,22.177,0,0,1,24.027,46.151Zm21.641-17.5a22.187,22.187,0,0,1-7.2,12.141l-5.905-4.834a14.721,14.721,0,0,0,5.2-6.776.951.951,0,0,0-.89-1.284H25.485V20.667H45.9a22.321,22.321,0,0,1-.23,7.98Z" transform="translate(0 0)" fill="rgba(252,79,25,0.99)" stroke="#fb501b" stroke-width="0.7"/>
        </g>
      </g>
    </g>
  </g>
</svg>
