<svg xmlns="http://www.w3.org/2000/svg" width="168" height="50" viewBox="0 0 168 50">
  <g id="header_logo" transform="translate(19284 9905)">
    <g id="Group_171211" data-name="Group 171211" transform="translate(-19284 -9905)">
      <g id="Group_171207" data-name="Group 171207" transform="translate(0)">
        <g id="Group_171205" data-name="Group 171205" transform="translate(0 5.837)">
          <g id="Group_171203" data-name="Group 171203" transform="translate(0 0)">
            <g id="logo_final" data-name="logo final">
              <g id="Group_163866" data-name="Group 163866" style="isolation: isolate">
                <g id="Group_163865" data-name="Group 163865">
                  <path id="Path_78918" data-name="Path 78918" d="M34,204q6.878.006,13.755.013c3.087,0,6.175.01,9.262-.011a.709.709,0,0,1,.767.517q2.156,5.013,4.356,10c.171.387.125.583-.263.7a3.414,3.414,0,0,0-.353.152c-.384.17-.833.554-1.135.456-.36-.117-.418-.738-.6-1.143q-1.744-3.97-3.456-7.955a.68.68,0,0,0-.737-.481q-8.769.02-17.538.009c-.646,0-.654.005-.375.634q4.658,10.513,9.321,21.024,3.733,8.414,7.46,16.83a.677.677,0,0,0,.727.492q4-.028,8,0a.7.7,0,0,0,.76-.519q4.96-12,9.948-23.99c1.416-3.412,2.84-6.821,4.242-10.239.159-.387.317-.478.679-.285.484.257,1.22.352,1.419.746s-.306,1.009-.517,1.519Q73.576,227.317,67.41,242.15c-.68,1.637-1.377,3.266-2.036,4.912a.666.666,0,0,1-.74.48q-5.426-.019-10.851,0a.651.651,0,0,1-.7-.458q-6.1-13.791-12.219-27.573-3.266-7.366-6.537-14.729c-.087-.195-.112-.438-.327-.557Z" transform="translate(-34 -203.562)" fill="#fff"/>
                  <path id="Path_78919" data-name="Path 78919" d="M208.5,200c-.371,1.215-.928,2.353-1.415,3.519-5.652,13.536-16.885,40.394-16.972,40.6s-1.108-.387-1.61-.589c-.358-.144-.405-.315-.257-.666q1.883-4.457,3.739-8.926,6.233-14.918,12.465-29.837c.249-.6.495-1.2.766-1.851h-.673c-5.735,0-11.471.007-17.206-.012a.8.8,0,0,0-.878.592q-6.285,15.078-12.6,30.141c-.043.1-.1.2-.188.391-.43-.942-.834-1.816-1.23-2.693q-4.767-10.549-9.541-21.094c-.2-.445-.3-.57.268-.872a5.512,5.512,0,0,1,1.369-.544,11.152,11.152,0,0,1,.795,1.448q3.985,8.785,7.96,17.575c.084.186.173.369.315.671L185.257,200Z" transform="translate(-148.644 -200)" fill="#fff"/>
                </g>
              </g>
            </g>
          </g>
        </g>
      </g>
      <line id="Line_427" data-name="Line 427" x1="98.488" transform="translate(58.666 33.449)" fill="none" stroke="#fff" stroke-width="1"/>
    </g>
    <g id="Group_171213" data-name="Group 171213" transform="translate(-19225.369 -9890.16)">
      <g id="Group_163867" data-name="Group 163867" transform="translate(0 22.874)">
        <g id="Group_163843" data-name="Group 163843" transform="translate(0 0)">
          <g id="Group_163842" data-name="Group 163842">
            <g id="Group_163879" data-name="Group 163879">
              <text id="Digitizing_Schools" data-name="Digitizing Schools" transform="translate(0 8)" fill="#fff" font-size="8" font-family="Poppins-Regular, Poppins" letter-spacing="0.22em"><tspan x="0" y="0">Digitizing Schools</tspan></text>
            </g>
          </g>
        </g>
      </g>
      <path id="Path_87453" data-name="Path 87453" d="M-64.278-21.863-69.209-8.418h-3.275l-4.931-13.445h2.889l3.7,10.691,3.679-10.691Zm2.986,1.5a1.643,1.643,0,0,1-1.185-.453,1.5,1.5,0,0,1-.472-1.127,1.5,1.5,0,0,1,.472-1.127,1.643,1.643,0,0,1,1.185-.453,1.643,1.643,0,0,1,1.185.453,1.5,1.5,0,0,1,.472,1.127,1.5,1.5,0,0,1-.472,1.127A1.643,1.643,0,0,1-61.293-20.361Zm1.329,1.271V-8.418h-2.7V-19.09Zm1.965,5.3a6.176,6.176,0,0,1,.645-2.87,4.707,4.707,0,0,1,1.762-1.926,4.716,4.716,0,0,1,2.485-.674,4.532,4.532,0,0,1,1.984.453,3.967,3.967,0,0,1,1.5,1.2v-5.066h2.735V-8.418H-49.62V-10a3.655,3.655,0,0,1-1.406,1.271,4.4,4.4,0,0,1-2.1.482,4.583,4.583,0,0,1-2.466-.693,4.829,4.829,0,0,1-1.762-1.955A6.279,6.279,0,0,1-58-13.793Zm8.4.039a3.459,3.459,0,0,0-.385-1.685,2.716,2.716,0,0,0-1.04-1.079,2.78,2.78,0,0,0-1.406-.376,2.731,2.731,0,0,0-1.387.366,2.756,2.756,0,0,0-1.031,1.069,3.349,3.349,0,0,0-.395,1.666,3.459,3.459,0,0,0,.395,1.685A2.843,2.843,0,0,0-53.809-11a2.642,2.642,0,0,0,1.377.385,2.78,2.78,0,0,0,1.406-.376,2.716,2.716,0,0,0,1.04-1.079A3.459,3.459,0,0,0-49.6-13.754Zm15.564-5.336L-40.643-3.372h-2.87L-41.2-8.688l-4.276-10.4h3.024l2.755,7.454,2.793-7.454Zm.751,5.3a6.176,6.176,0,0,1,.645-2.87,4.73,4.73,0,0,1,1.753-1.926,4.667,4.667,0,0,1,2.475-.674,4.348,4.348,0,0,1,2.09.482,4.241,4.241,0,0,1,1.435,1.214V-19.09h2.716V-8.418h-2.716v-1.56a4.011,4.011,0,0,1-1.435,1.242,4.391,4.391,0,0,1-2.109.491,4.535,4.535,0,0,1-2.456-.693,4.853,4.853,0,0,1-1.753-1.955A6.279,6.279,0,0,1-33.285-13.793Zm8.4.039a3.459,3.459,0,0,0-.385-1.685,2.716,2.716,0,0,0-1.04-1.079,2.78,2.78,0,0,0-1.406-.376,2.731,2.731,0,0,0-1.387.366,2.756,2.756,0,0,0-1.031,1.069,3.349,3.349,0,0,0-.395,1.666,3.459,3.459,0,0,0,.395,1.685A2.843,2.843,0,0,0-29.1-11a2.642,2.642,0,0,0,1.377.385,2.78,2.78,0,0,0,1.406-.376,2.716,2.716,0,0,0,1.04-1.079A3.459,3.459,0,0,0-24.887-13.754Zm8.052-8.918V-8.418h-2.7V-22.672Zm1.965,8.88a6.176,6.176,0,0,1,.645-2.87,4.73,4.73,0,0,1,1.753-1.926A4.667,4.667,0,0,1-10-19.263a4.348,4.348,0,0,1,2.09.482,4.241,4.241,0,0,1,1.435,1.214V-19.09h2.716V-8.418H-6.472v-1.56A4.011,4.011,0,0,1-7.907-8.736a4.391,4.391,0,0,1-2.109.491,4.535,4.535,0,0,1-2.456-.693,4.853,4.853,0,0,1-1.753-1.955A6.279,6.279,0,0,1-14.871-13.793Zm8.4.039a3.459,3.459,0,0,0-.385-1.685A2.716,2.716,0,0,0-7.9-16.518,2.78,2.78,0,0,0-9.3-16.894a2.731,2.731,0,0,0-1.387.366,2.756,2.756,0,0,0-1.031,1.069,3.349,3.349,0,0,0-.395,1.666,3.459,3.459,0,0,0,.395,1.685A2.843,2.843,0,0,0-10.681-11a2.642,2.642,0,0,0,1.377.385A2.78,2.78,0,0,0-7.9-10.99a2.716,2.716,0,0,0,1.04-1.079A3.459,3.459,0,0,0-6.472-13.754ZM9.092-19.09,2.485-3.372H-.385L1.926-8.688-2.35-19.09H.674l2.754,7.454L6.222-19.09Zm.751,5.3a6.176,6.176,0,0,1,.645-2.87,4.73,4.73,0,0,1,1.753-1.926,4.667,4.667,0,0,1,2.475-.674,4.348,4.348,0,0,1,2.09.482,4.241,4.241,0,0,1,1.435,1.214V-19.09h2.716V-8.418H18.241v-1.56a4.011,4.011,0,0,1-1.435,1.242,4.391,4.391,0,0,1-2.109.491,4.535,4.535,0,0,1-2.456-.693,4.853,4.853,0,0,1-1.753-1.955A6.279,6.279,0,0,1,9.843-13.793Zm8.4.039a3.459,3.459,0,0,0-.385-1.685,2.716,2.716,0,0,0-1.04-1.079,2.78,2.78,0,0,0-1.406-.376,2.731,2.731,0,0,0-1.387.366,2.756,2.756,0,0,0-1.031,1.069,3.349,3.349,0,0,0-.395,1.666,3.459,3.459,0,0,0,.395,1.685A2.843,2.843,0,0,0,14.032-11a2.642,2.642,0,0,0,1.377.385,2.78,2.78,0,0,0,1.406-.376,2.716,2.716,0,0,0,1.04-1.079A3.459,3.459,0,0,0,18.241-13.754Z" transform="translate(77.415 23.52)" fill="#fff"/>
    </g>
    <g id="Group_171228" data-name="Group 171228" transform="translate(22 16)">
      <g id="Ellipse_3476" data-name="Ellipse 3476" transform="translate(-19153 -9921)" fill="none" stroke="#fff" stroke-width="1">
        <circle cx="7.5" cy="7.5" r="7.5" stroke="none"/>
        <circle cx="7.5" cy="7.5" r="7" fill="none"/>
      </g>
      <path id="Path_87455" data-name="Path 87455" d="M1.085,0-.455-2.72h-.66V0h-1.4V-6.98H.105a3.059,3.059,0,0,1,1.38.285,1.991,1.991,0,0,1,.855.77A2.1,2.1,0,0,1,2.625-4.84a2.078,2.078,0,0,1-.4,1.245,2.055,2.055,0,0,1-1.19.765L2.705,0Zm-2.2-3.77H.055a1.169,1.169,0,0,0,.85-.275,1.023,1.023,0,0,0,.28-.765.976.976,0,0,0-.28-.745,1.2,1.2,0,0,0-.85-.265h-1.17Z" transform="translate(-19145.484 -9910.02)" fill="#fff"/>
    </g>
  </g>
</svg>
