<svg xmlns="http://www.w3.org/2000/svg" xmlns:xlink="http://www.w3.org/1999/xlink" width="138" height="138" viewBox="0 0 138 138">
  <defs>
    <filter id="Ellipse_3227" x="0" y="0" width="138" height="138" filterUnits="userSpaceOnUse">
      <feOffset dy="3" input="SourceAlpha"/>
      <feGaussianBlur stdDeviation="3" result="blur"/>
      <feFlood flood-opacity="0.161"/>
      <feComposite operator="in" in2="blur"/>
      <feComposite in="SourceGraphic"/>
    </filter>
  </defs>
  <g id="ic_barcode" transform="translate(-874 -3141)">
    <g id="_13" data-name="13" transform="translate(-4 3)">
      <g id="Group_162559" data-name="Group 162559" transform="translate(453 1362)">
        <g transform="matrix(1, 0, 0, 1, 425, 1776)" filter="url(#Ellipse_3227)">
          <circle id="Ellipse_3227-2" data-name="Ellipse 3227" cx="60" cy="60" r="60" transform="translate(9 6)" fill="#fff"/>
        </g>
      </g>
    </g>
    <g id="Group_175157" data-name="Group 175157">
      <g id="Group_175156" data-name="Group 175156" transform="translate(914.426 3171.628)">
        <path id="Path_88432" data-name="Path 88432" d="M326.453,274.3q5,0,9.994,0c1.339,0,1.775.418,1.777,1.747q.013,10.043,0,20.085c0,1.386-.426,1.794-1.834,1.8-6.042.005-12.084.018-18.126-.017-.78,0-.973.208-.959.97.048,2.579.024,5.16.016,7.74,0,1.291-.484,1.789-1.769,1.794q-4.85.021-9.7,0c-1.254-.005-1.737-.477-1.743-1.714q-.024-4.9,0-9.8c.006-1.252.477-1.7,1.729-1.721,1.078-.014,2.157-.031,3.233.009.521.019.669-.145.652-.658-.037-1.109-.033-2.221,0-3.33.013-.47-.128-.623-.6-.6-.848.036-1.7.026-2.547.006a1.384,1.384,0,1,1,.04-2.74q2.106-.022,4.213,0c1.171.012,1.624.484,1.631,1.688.01,1.633.058,3.268-.018,4.9-.046.993.594.713,1.083.72s1.079.243,1.072-.729c-.042-6.074-.022-12.149-.02-18.224,0-1.535.375-1.918,1.884-1.92Q321.456,274.3,326.453,274.3Zm.008,2.748c-2.808,0-5.616.012-8.424-.011-.524,0-.731.09-.729.68q.034,8.375,0,16.75c0,.514.082.734.675.731q8.375-.035,16.75,0c.623,0,.756-.2.754-.781q-.03-8.277.006-16.554c0-.741-.275-.835-.906-.828C331.881,277.064,329.171,277.047,326.461,277.047ZM314.577,301.88c0-1.11-.018-2.221.008-3.33.01-.455-.115-.635-.6-.63q-3.232.032-6.464,0c-.512-.005-.681.158-.675.67q.033,3.183,0,6.366c-.006.544.146.739.716.731q3.182-.045,6.366,0c.52.006.677-.162.661-.671C314.553,303.97,314.577,302.924,314.577,301.88Z" transform="translate(-273.23 -274.298)" fill="rgba(252,79,25,0.99)"/>
        <path id="Path_88433" data-name="Path 88433" d="M196.076,434.242q4.95,0,9.9,0c1.321,0,1.785.447,1.786,1.738q.007,10.1,0,20.193c0,1.251-.462,1.739-1.7,1.741q-10.1.015-20.193,0c-1.258,0-1.745-.47-1.747-1.707q-.017-10.146,0-20.291c0-1.232.492-1.673,1.761-1.675Q190.979,434.236,196.076,434.242Zm-.1,2.747c-2.775,0-5.55.022-8.325-.016-.647-.009-.8.177-.8.808q.038,8.276,0,16.552c0,.712.237.856.894.853q8.227-.035,16.454,0c.605,0,.841-.108.837-.79q-.044-8.325,0-16.65c0-.7-.252-.773-.835-.768C201.458,437,198.716,436.989,195.974,436.989Z" transform="translate(-184.111 -392.928)" fill="rgba(252,79,25,0.99)"/>
        <path id="Path_88434" data-name="Path 88434" d="M195.963,274.3q5,0,10,0c1.4,0,1.8.406,1.8,1.806q.005,10,0,19.995c0,1.4-.413,1.826-1.788,1.827q-10.046.009-20.092,0c-1.339,0-1.764-.421-1.766-1.764q-.013-10.046,0-20.092c0-1.386.418-1.769,1.85-1.771Q190.965,274.295,195.963,274.3Zm9.052,11.914c0-2.808-.019-5.616.015-8.424.008-.607-.153-.758-.756-.755q-8.326.037-16.653,0c-.591,0-.774.136-.771.753q.037,8.326,0,16.653c0,.615.178.756.77.753q8.326-.033,16.653,0c.6,0,.765-.145.757-.754C205,291.7,205.015,288.957,205.015,286.214Z" transform="translate(-184.11 -274.298)" fill="rgba(252,79,25,0.99)"/>
        <path id="Path_88435" data-name="Path 88435" d="M344.173,445.982q0-4.9,0-9.8c0-1.525.4-1.935,1.881-1.935q9.95,0,19.9,0c1.437,0,1.867.419,1.868,1.864q.009,9.95,0,19.9c0,1.486-.438,1.912-1.946,1.913q-9.9.006-19.8,0c-1.483,0-1.9-.435-1.9-1.94Q344.17,450.982,344.173,445.982Zm11.78,9.194c2.743,0,5.486-.03,8.228.02.756.014.916-.216.913-.932q-.044-8.228,0-16.456c0-.594-.09-.84-.784-.836q-8.325.049-16.651,0c-.614,0-.75.161-.748.757q.036,8.326,0,16.652c0,.659.191.814.821.806C350.467,455.157,353.21,455.176,355.953,455.176Z" transform="translate(-302.828 -392.93)" fill="rgba(252,79,25,0.99)"/>
        <path id="Path_88436" data-name="Path 88436" d="M245.076,387.428c-2.221,0-4.442.007-6.663,0-1.357-.005-1.791-.413-1.8-1.732q-.02-4.851,0-9.7c.005-1.313.463-1.751,1.778-1.752q4.851-.007,9.7,0c1.234,0,1.726.482,1.731,1.711.011,2.646.025,5.292-.012,7.937-.009.64.162.836.806.8,1.108-.054,2.221-.029,3.331-.011,1.181.019,1.667.491,1.679,1.675q.031,3.136,0,6.271c-.009,1.081-.517,1.654-1.382,1.649s-1.346-.578-1.359-1.67c-.018-1.437-.037-2.875.01-4.311.022-.673-.164-.9-.866-.885C249.715,387.455,247.4,387.428,245.076,387.428Zm-5.713-6.62c0,1.077.027,2.155-.011,3.231-.019.529.171.656.671.65q3.231-.036,6.462,0c.472,0,.611-.145.606-.613-.022-2.154-.028-4.308,0-6.462.008-.544-.19-.641-.675-.636q-3.231.034-6.462,0c-.473-.005-.619.124-.6.6C239.387,378.653,239.364,379.73,239.363,380.807Z" transform="translate(-223.03 -348.397)" fill="rgba(252,79,25,0.99)"/>
        <path id="Path_88437" data-name="Path 88437" d="M330.611,402.742q-5.049,0-10.1,0a1.515,1.515,0,0,1-1.484-.752,1.276,1.276,0,0,1,.068-1.392,1.627,1.627,0,0,1,1.557-.612c4.117.008,8.235-.019,12.352.024.814.008,1.076-.208,1.022-1.023-.069-1.041-.038-2.091-.009-3.136.031-1.089.494-1.552,1.573-1.556q5.931-.019,11.862,0c1.149,0,1.591.455,1.6,1.611q.02,3.039,0,6.078c-.006,1.043-.462,1.583-1.3,1.61-.866.028-1.417-.565-1.433-1.607-.02-1.4-.041-2.812.011-4.215.023-.628-.182-.785-.77-.744a14.186,14.186,0,0,1-2.155,0c-.7-.058-.992.111-.931.887.078.974.026,1.959.017,2.94-.013,1.433-.456,1.882-1.878,1.884Q335.61,402.748,330.611,402.742ZM338.193,400c1.761-.025,1.536.22,1.549-1.136.017-1.831.005-1.831-1.145-1.831-1.846,0-1.846,0-1.846,1.232C336.75,400,336.75,400,338.193,400Z" transform="translate(-284.129 -363.199)" fill="rgba(252,79,25,0.99)"/>
        <path id="Path_88438" data-name="Path 88438" d="M297.347,444.47c0,1.666.007,3.331,0,5-.007,1.257-.464,1.735-1.69,1.739q-4.9.014-9.8,0c-1.224,0-1.679-.485-1.686-1.744-.008-1.437,0-2.874,0-4.311,0-1.518.4-1.93,1.9-1.932,2.58,0,5.16-.023,7.74.014.636.009.844-.154.808-.8-.056-1.009-.031-2.024-.01-3.036.02-.991.535-1.557,1.371-1.562.862,0,1.357.531,1.366,1.544C297.358,441.073,297.346,442.771,297.347,444.47Zm-6.593,3.995H292.9c1.733,0,1.7,0,1.719-1.723.009-.675-.221-.807-.833-.793-1.692.037-3.385.013-5.078.013-1.856,0-1.825,0-1.815,1.847,0,.6.225.683.734.666C288.67,448.441,289.713,448.464,290.754,448.464Z" transform="translate(-258.259 -395.58)" fill="rgba(252,79,25,0.99)"/>
        <path id="Path_88439" data-name="Path 88439" d="M289.107,289.552c0-2.219-.007-4.439,0-6.658.006-1.47.393-1.849,1.866-1.852,2.35,0,4.7-.009,7.05,0,1.2.006,1.656.447,1.673,1.651q.032,2.3,0,4.6c-.016,1.253-.462,1.678-1.745,1.688-1.762.013-3.525.033-5.287-.012-.657-.017-.83.189-.82.829.036,2.251.026,4.5.008,6.755-.008,1.043-.475,1.59-1.3,1.627-.882.039-1.43-.524-1.439-1.582C289.092,294.252,289.107,291.9,289.107,289.552Zm5.2-3.313h.979c1.708,0,1.682,0,1.685-1.686,0-.577-.12-.809-.749-.778a23.354,23.354,0,0,1-3.226-.007c-.966-.086-1.218.236-1.155,1.171.087,1.3.021,1.3,1.293,1.3Z" transform="translate(-261.904 -279.275)" fill="rgba(252,79,25,0.99)"/>
        <path id="Path_88444" data-name="Path 88444" d="M290.8,494.238c1.6,0,3.2-.006,4.8,0,1.261.006,1.727.455,1.735,1.686.011,1.567.014,3.134,0,4.7-.011,1.068-.483,1.586-1.544,1.593q-5.043.035-10.087,0c-1.06-.008-1.529-.529-1.539-1.6q-.022-2.4,0-4.8c.011-1.1.506-1.573,1.643-1.581C287.468,494.23,289.133,494.238,290.8,494.238Zm-.049,2.745H288.6c-1.732,0-1.695,0-1.718,1.724-.009.674.221.806.833.792,1.692-.037,3.385-.013,5.078-.013,1.856,0,1.826,0,1.815-1.847,0-.6-.227-.682-.735-.666C292.832,497.006,291.79,496.983,290.748,496.983Z" transform="translate(-258.246 -437.238)" fill="rgba(252,79,25,0.99)"/>
        <path id="Path_88445" data-name="Path 88445" d="M196.7,394.4c3.238,0,3.509.272,3.509,3.513s-.3,3.548-3.5,3.548c-3.266,0-3.552-.29-3.553-3.592C193.153,394.652,193.408,394.4,196.7,394.4Z" transform="translate(-190.789 -363.272)" fill="rgba(252,79,25,0.99)"/>
        <path id="Path_88446" data-name="Path 88446" d="M380.819,374.242c2.121,0,4.243-.007,6.364,0,1.066,0,1.655.507,1.655,1.371s-.591,1.368-1.657,1.37q-6.461.01-12.923,0c-1.048,0-1.628-.54-1.6-1.42.027-.831.591-1.313,1.6-1.318C376.446,374.234,378.632,374.242,380.819,374.242Z" transform="translate(-323.865 -348.32)" fill="rgba(252,79,25,0.99)"/>
        <path id="Path_88447" data-name="Path 88447" d="M189.528,378.045c-1.239,0-2.478.016-3.716,0-1.053-.018-1.644-.551-1.623-1.406.021-.814.6-1.327,1.6-1.334q3.765-.028,7.53,0c1.043.007,1.649.563,1.627,1.409-.022.808-.6,1.314-1.6,1.331C192.071,378.062,190.8,378.045,189.528,378.045Z" transform="translate(-184.168 -349.095)" fill="rgba(252,79,25,0.99)"/>
        <path id="Path_88459" data-name="Path 88459" d="M213.111,457.484c1.37,0,2.74-.009,4.109,0,1.126.009,1.609.478,1.614,1.6q.018,4.158,0,8.317c-.005,1.066-.482,1.582-1.543,1.592q-4.207.04-8.414,0a1.37,1.37,0,0,1-1.526-1.522q-.039-4.256,0-8.512c.011-1.007.529-1.461,1.55-1.473C210.305,457.472,211.708,457.484,213.111,457.484Zm.181,2.746c-.977,0-1.793.025-2.607-.009-.472-.02-.617.136-.61.607q.038,2.4,0,4.793c-.009.529.192.658.687.65,1.565-.026,3.13-.032,4.695,0,.541.012.661-.2.643-.682-.031-.814,0-1.63-.01-2.445-.011-.939.325-2.21-.152-2.73C215.383,459.809,214.1,460.313,213.292,460.229Z" transform="translate(-201.26 -410.609)" fill="rgba(252,79,25,0.99)"/>
        <path id="Path_88460" data-name="Path 88460" d="M213.111,457.484c1.37,0,2.74-.009,4.109,0,1.126.009,1.609.478,1.614,1.6q.018,4.158,0,8.317c-.005,1.066-.482,1.582-1.543,1.592q-4.207.04-8.414,0a1.37,1.37,0,0,1-1.526-1.522q-.039-4.256,0-8.512c.011-1.007.529-1.461,1.55-1.473C210.305,457.472,211.708,457.484,213.111,457.484Zm.181,2.746c-.977,0-1.793.025-2.607-.009-.472-.02-.617.136-.61.607q.038,2.4,0,4.793c-.009.529.192.658.687.65,1.565-.026,3.13-.032,4.695,0,.541.012.661-.2.643-.682-.031-.814,0-1.63-.01-2.445-.011-.939.325-2.21-.152-2.73C215.383,459.809,214.1,460.313,213.292,460.229Z" transform="translate(-201.26 -452.107)" fill="rgba(252,79,25,0.99)"/>
        <path id="Path_88461" data-name="Path 88461" d="M213.111,457.484c1.37,0,2.74-.009,4.109,0,1.126.009,1.609.478,1.614,1.6q.018,4.158,0,8.317c-.005,1.066-.482,1.582-1.543,1.592q-4.207.04-8.414,0a1.37,1.37,0,0,1-1.526-1.522q-.039-4.256,0-8.512c.011-1.007.529-1.461,1.55-1.473C210.305,457.472,211.708,457.484,213.111,457.484Zm.181,2.746c-.977,0-1.793.025-2.607-.009-.472-.02-.617.136-.61.607q.038,2.4,0,4.793c-.009.529.192.658.687.65,1.565-.026,3.13-.032,4.695,0,.541.012.661-.2.643-.682-.031-.814,0-1.63-.01-2.445-.011-.939.325-2.21-.152-2.73C215.383,459.809,214.1,460.313,213.292,460.229Z" transform="translate(-160.26 -410.609)" fill="rgba(252,79,25,0.99)"/>
        <path id="Path_88462" data-name="Path 88462" d="M213.111,457.484c1.37,0,2.74-.009,4.109,0,1.126.009,1.609.478,1.614,1.6q.018,4.158,0,8.317c-.005,1.066-.482,1.582-1.543,1.592q-4.207.04-8.414,0a1.37,1.37,0,0,1-1.526-1.522q-.039-4.256,0-8.512c.011-1.007.529-1.461,1.55-1.473C210.305,457.472,211.708,457.484,213.111,457.484Zm.181,2.746c-.977,0-1.793.025-2.607-.009-.472-.02-.617.136-.61.607q.038,2.4,0,4.793c-.009.529.192.658.687.65,1.565-.026,3.13-.032,4.695,0,.541.012.661-.2.643-.682-.031-.814,0-1.63-.01-2.445-.011-.939.325-2.21-.152-2.73C215.383,459.809,214.1,460.313,213.292,460.229Z" transform="translate(-160.26 -452.107)" fill="rgba(252,79,25,0.99)"/>
      </g>
    </g>
  </g>
</svg>
