<svg xmlns="http://www.w3.org/2000/svg" xmlns:xlink="http://www.w3.org/1999/xlink" width="138" height="138" viewBox="0 0 138 138">
  <defs>
    <filter id="Ellipse_3227" x="0" y="0" width="138" height="138" filterUnits="userSpaceOnUse">
      <feOffset dy="3" input="SourceAlpha"/>
      <feGaussianBlur stdDeviation="3" result="blur"/>
      <feFlood flood-opacity="0.161"/>
      <feComposite operator="in" in2="blur"/>
      <feComposite in="SourceGraphic"/>
    </filter>
  </defs>
  <g id="_8" data-name="8" transform="translate(-578 -2842)">
    <g id="_8-2" data-name="8">
      <g id="Group_162560" data-name="Group 162560" transform="translate(153 1066)">
        <g id="Group_162559" data-name="Group 162559">
          <g transform="matrix(1, 0, 0, 1, 425, 1776)" filter="url(#Ellipse_3227)">
            <circle id="Ellipse_3227-2" data-name="Ellipse 3227" cx="60" cy="60" r="60" transform="translate(9 6)" fill="#fff"/>
          </g>
        </g>
      </g>
    </g>
    <g id="Group_175098" data-name="Group 175098" transform="translate(490.594 2671.294)">
      <path id="Path_88334" data-name="Path 88334" d="M185.055,204.75a24.133,24.133,0,0,0,2.768.478,25.375,25.375,0,0,1,20.069,20.6,27.054,27.054,0,0,1,.363,4.418q0,7.011,0,14.023a25.235,25.235,0,0,1-15.87,23.654,24.139,24.139,0,0,1-7.015,1.707c-.114.01-.264-.053-.314.124h-4.59a9.769,9.769,0,0,0-2.324-.442,25.374,25.374,0,0,1-20.621-25.047q0-7.011,0-14.022a25.4,25.4,0,0,1,22.758-25.36c.113-.013.265.046.313-.129Zm21.286,33.136c0-2.927,0-5.275,0-7.624a25.061,25.061,0,0,0-.618-5.532,23.455,23.455,0,0,0-46.284,5.23c-.033,4.866-.007,9.732,0,14.6a22.881,22.881,0,0,0,.412,4.287,23.456,23.456,0,0,0,35.143,15.622,22.581,22.581,0,0,0,11.241-18.025C206.521,243.405,206.266,240.352,206.341,237.886Z" transform="translate(-26.111 -0.044)" fill="rgba(252,79,25,0.99)" stroke="#eb592a" stroke-width="0.5"/>
      <path id="Path_88336" data-name="Path 88336" d="M247.456,287c-.058,2.124.119,4.719-.1,7.307a18.216,18.216,0,0,1-2.751,8.18.965.965,0,0,1-1.354.416.929.929,0,0,1-.286-1.379,18.143,18.143,0,0,0,2.588-10.208c-.07-3.887,0-7.777-.02-11.666a13.333,13.333,0,0,0-26.49-2.31,46.017,46.017,0,0,0-.213,6.171,5.1,5.1,0,0,1-.031.763.846.846,0,0,1-.768.735.908.908,0,0,1-1-.513.687.687,0,0,1-.09-.3c-.023-3.645-.265-7.3,1.3-10.771a15.209,15.209,0,0,1,28.878,3.066,17.918,17.918,0,0,1,.335,3.735C247.45,282.321,247.456,284.425,247.456,287Z" transform="translate(-75.412 -49.54)" fill="rgba(252,79,25,0.99)" stroke="#eb592a" stroke-width="0.5"/>
      <path id="Path_88337" data-name="Path 88337" d="M237.231,337.169c0,2.273.02,4.547-.007,6.82a3.354,3.354,0,0,0,1.9,3.251,8.5,8.5,0,0,1-2.247,15.837,8.2,8.2,0,0,1-5.625-.747,19.536,19.536,0,0,1-4.063-2.718c-.584-.508-.691-1.012-.315-1.485s.964-.473,1.559.034a18.034,18.034,0,0,0,3.7,2.464,6.592,6.592,0,0,0,6.135-11.668,5.274,5.274,0,0,1-2.96-5.073c.035-4.589,0-9.179.014-13.768a5.064,5.064,0,0,1,3.955-5.1,4.9,4.9,0,0,1,5.93,4.724c.069,3.908.023,7.818.016,11.728a1,1,0,0,1-.97,1.114c-.564-.005-.936-.436-.937-1.129,0-3.8,0-7.606,0-11.41a3.041,3.041,0,1,0-6.073-.011C237.214,332.41,237.231,334.79,237.231,337.169Z" transform="translate(-83.495 -100.062)" fill="rgba(252,79,25,0.99)" stroke="#eb592a" stroke-width="0.5"/>
      <path id="Path_88338" data-name="Path 88338" d="M188.739,295.169c0-2.591-.052-5.183.011-7.772a19.845,19.845,0,0,1,4.828-12.569c.5-.592,1.083-.7,1.533-.31.434.379.421.947-.056,1.518a18.562,18.562,0,0,0-4.424,12.484c.045,4.926-.029,9.855.053,14.78a16.826,16.826,0,0,0,2.883,8.962c.1.16.213.317.312.48a.96.96,0,1,1-1.6,1.038,19.478,19.478,0,0,1-3.538-10.9c-.041-2.569-.008-5.139-.008-7.709Z" transform="translate(-52.007 -57.891)" fill="rgba(252,79,25,0.99)" stroke="#eb592a" stroke-width="0.5"/>
      <path id="Path_88339" data-name="Path 88339" d="M251.211,313.135q0,3.6,0,7.2a3.623,3.623,0,0,1-.042.7.936.936,0,0,1-1.825.012,2.649,2.649,0,0,1-.046-.569c0-4.673-.026-9.346.005-14.019a9.82,9.82,0,0,1,8.085-9.794,9.41,9.41,0,0,1,4.287.2c.8.214,1.132.687.944,1.306-.165.543-.682.747-1.418.561a7.811,7.811,0,0,0-9.576,5.145,8.421,8.421,0,0,0-.412,2.755Q251.211,309.885,251.211,313.135Z" transform="translate(-102.277 -76.309)" fill="rgba(252,79,25,0.99)" stroke="#eb592a" stroke-width="0.5"/>
      <path id="Path_88340" data-name="Path 88340" d="M386.879,285.188c0,2.076.009,3.8,0,5.515a.938.938,0,0,1-.942,1.05.978.978,0,0,1-.965-1.045c-.01-.148,0-.3,0-.446,0-2.377-.014-4.755,0-7.132a20.868,20.868,0,0,0-.67-5.918,18.2,18.2,0,0,0-4.464-7.735c-.132-.138-.275-.266-.4-.409a.954.954,0,1,1,1.372-1.321,19.8,19.8,0,0,1,5.905,11.757A50.109,50.109,0,0,1,386.879,285.188Z" transform="translate(-210.042 -52.124)" fill="rgba(252,79,25,0.99)" stroke="#eb592a" stroke-width="0.5"/>
      <path id="Path_88341" data-name="Path 88341" d="M343.239,326.8q0,3.759,0,7.519a4.521,4.521,0,0,1-.016.572.925.925,0,0,1-.974.89.908.908,0,0,1-.911-.887,5.924,5.924,0,0,1-.015-.636c0-4.545-.025-9.091.01-13.636a8.4,8.4,0,0,0-2.044-5.922.947.947,0,0,1,.014-1.46.98.98,0,0,1,1.452.235,9.735,9.735,0,0,1,2.486,6.7Q343.234,323.489,343.239,326.8Z" transform="translate(-176.702 -90.024)" fill="rgba(252,79,25,0.99)" stroke="#eb592a" stroke-width="0.5"/>
      <path id="Path_88342" data-name="Path 88342" d="M249.24,235.93a19.856,19.856,0,0,1,9.9,2.615,1.142,1.142,0,0,1,.709.835.9.9,0,0,1-.36.9.968.968,0,0,1-1.134.027,17.066,17.066,0,0,0-3.832-1.669,17.829,17.829,0,0,0-15.218,2.2c-.089.057-.175.118-.265.174A.965.965,0,1,1,238,239.4a19.623,19.623,0,0,1,11.239-3.474Z" transform="translate(-92.441 -25.923)" fill="rgba(252,79,25,0.99)" stroke="#eb592a" stroke-width="0.5"/>
      <path id="Path_88343" data-name="Path 88343" d="M218.812,406.465a15.363,15.363,0,0,0,1.09,6.786,13.25,13.25,0,0,0,5.734,6.358c.184.1.373.2.553.314a.966.966,0,0,1,.414,1.351.941.941,0,0,1-1.331.324,15.239,15.239,0,0,1-8.365-13.533c-.025-1.806-.017-3.612,0-5.418.006-.828.589-1.3,1.266-1.061a.928.928,0,0,1,.643.986C218.81,403.718,218.812,404.866,218.812,406.465Z" transform="translate(-75.389 -163.575)" fill="rgba(252,79,25,0.99)" stroke="#eb592a" stroke-width="0.5"/>
      <path id="Path_88344" data-name="Path 88344" d="M314.435,442.772a13.225,13.225,0,0,1-2.226,7.438,1.173,1.173,0,0,1-.76.627.909.909,0,0,1-.956-.354.956.956,0,0,1,.018-1.184,11.692,11.692,0,0,0,1.65-3.621,11.481,11.481,0,0,0-5-12.594c-.144-.09-.294-.169-.436-.261a.962.962,0,1,1,.974-1.643,13.157,13.157,0,0,1,3.35,2.707A13.315,13.315,0,0,1,314.435,442.772Z" transform="translate(-149.465 -188.107)" fill="rgba(252,79,25,0.99)" stroke="#eb592a" stroke-width="0.5"/>
      <path id="Path_88345" data-name="Path 88345" d="M386.384,428a20.649,20.649,0,0,1-6.062,14.54,1.017,1.017,0,0,1-1.307.287.9.9,0,0,1-.444-1.033,1.051,1.051,0,0,1,.371-.577,18.138,18.138,0,0,0,5.188-9.926,23.456,23.456,0,0,0,.363-4.182,2.381,2.381,0,0,1,.067-.629.856.856,0,0,1,.958-.663.827.827,0,0,1,.856.782C386.419,427.064,386.384,427.535,386.384,428Z" transform="translate(-209.568 -183.749)" fill="rgba(252,79,25,0.99)" stroke="#eb592a" stroke-width="0.5"/>
      <path id="Path_88346" data-name="Path 88346" d="M302.989,364.415c0,.72.008,1.439,0,2.159-.011.744-.365,1.18-.944,1.191s-.969-.43-.975-1.158q-.017-2.19,0-4.381c.006-.735.387-1.167.974-1.157s.935.438.946,1.188C303,362.976,302.989,363.7,302.989,364.415Z" transform="translate(-145.25 -129.916)" fill="rgba(252,79,25,0.99)" stroke="#eb592a" stroke-width="0.5"/>
      <path id="Path_88347" data-name="Path 88347" d="M262.392,465.246a.92.92,0,0,1-1.305.846,9.163,9.163,0,0,1-4.014-3.681.856.856,0,0,1,.319-1.221.844.844,0,0,1,1.243.2,9.119,9.119,0,0,0,3.339,3.053A.806.806,0,0,1,262.392,465.246Z" transform="translate(-108.627 -212.939)" fill="rgba(252,79,25,0.99)" stroke="#eb592a" stroke-width="0.5"/>
    </g>
  </g>
</svg>
