<svg xmlns="http://www.w3.org/2000/svg" xmlns:xlink="http://www.w3.org/1999/xlink" width="136" height="136" viewBox="0 0 136 136">
  <defs>
    <filter id="Rectangle_3041" x="0" y="0" width="136" height="136" filterUnits="userSpaceOnUse">
      <feOffset dy="2" input="SourceAlpha"/>
      <feGaussianBlur stdDeviation="6" result="blur"/>
      <feFlood flood-opacity="0.102"/>
      <feComposite operator="in" in2="blur"/>
      <feComposite in="SourceGraphic"/>
    </filter>
  </defs>
  <g id="ic_customer_satisfaction" transform="translate(18788 7857)">
    <g transform="matrix(1, 0, 0, 1, -18788, -7857)" filter="url(#Rectangle_3041)">
      <rect id="Rectangle_3041-2" data-name="Rectangle 3041" width="100" height="100" rx="5" transform="translate(18 16)" fill="none"/>
    </g>
    <g id="_3" data-name="3" transform="translate(-32 188)">
      <path id="Path_88010" data-name="Path 88010" d="M711.334,20.067A10.034,10.034,0,1,0,701.3,10.034,10.047,10.047,0,0,0,711.334,20.067Zm0-18.032a8,8,0,1,1-8,8A8,8,0,0,1,711.334,2.035Z" transform="translate(-19399.332 -8011)" fill="rgba(252,79,25,0.99)" stroke="rgba(252,79,25,0.99)" stroke-width="0.5"/>
      <path id="Path_88011" data-name="Path 88011" d="M652.592,201.836A15.406,15.406,0,0,1,668,216.139H644.32a1.018,1.018,0,1,0,0,2.035h24.739a1.019,1.019,0,0,0,1.026-1.018,17.493,17.493,0,0,0-34.984,0,1.019,1.019,0,0,0,1.026,1.018h4.092a1.018,1.018,0,1,0,0-2.035h-3.044a15.424,15.424,0,0,1,15.418-14.3Z" transform="translate(-19340.59 -8188.566)" fill="rgba(252,79,25,0.99)" stroke="rgba(252,79,25,0.99)" stroke-width="0.5"/>
      <g id="Group_171960" data-name="Group 171960" transform="translate(-18720 -8011)">
        <path id="Path_72708" data-name="Path 72708" d="M522.981,410.694l-5.575-.94-2.622-5.011a1.03,1.03,0,0,0-1.814,0l-2.611,5.011-5.576.94a1.015,1.015,0,0,0-.553,1.715l3.96,4.038-.83,5.6a1.012,1.012,0,0,0,.409.974,1.027,1.027,0,0,0,1.051.089l5.066-2.522,5.067,2.522a1.1,1.1,0,0,0,.454.111,1,1,0,0,0,.6-.2,1.012,1.012,0,0,0,.409-.974l-.83-5.6,3.96-4.038a1.031,1.031,0,0,0,.243-1.029,1.064,1.064,0,0,0-.808-.686Zm-5.21,4.69a1,1,0,0,0-.277.863l.619,4.171-3.772-1.881a1.007,1.007,0,0,0-.907,0l-3.772,1.881.619-4.171a1.031,1.031,0,0,0-.277-.863l-2.954-3.009,4.148-.7a1.034,1.034,0,0,0,.73-.531l1.947-3.739,1.947,3.739a1,1,0,0,0,.73.531l4.148.7C520.713,412.375,517.771,415.384,517.771,415.384Z" transform="translate(-503.935 -359.216)" fill="rgba(252,79,25,0.99)" stroke="rgba(252,79,25,0.99)" stroke-width="0.3"/>
        <path id="Path_72709" data-name="Path 72709" d="M721.17,410.694l-5.576-.94-2.611-5.011a1.03,1.03,0,0,0-1.814,0l-2.611,5.011-5.576.94a1.015,1.015,0,0,0-.553,1.715l3.96,4.038-.83,5.6a1.012,1.012,0,0,0,.409.974,1.027,1.027,0,0,0,1.051.089l5.067-2.522,5.067,2.522a1.1,1.1,0,0,0,.453.111.994.994,0,0,0,.6-.2,1.012,1.012,0,0,0,.409-.974l-.83-5.6,3.96-4.038a1.031,1.031,0,0,0,.243-1.029,1.079,1.079,0,0,0-.819-.686Zm-5.21,4.69a1,1,0,0,0-.277.863l.62,4.171-3.772-1.881a1.1,1.1,0,0,0-.454-.111.946.946,0,0,0-.453.111l-3.772,1.881.62-4.171a1.031,1.031,0,0,0-.276-.863l-2.954-3.009,4.148-.7a1.034,1.034,0,0,0,.73-.531l1.947-3.739,1.947,3.739a1,1,0,0,0,.73.531l4.148.7-2.932,3.009Z" transform="translate(-680.074 -359.216)" fill="rgba(252,79,25,0.99)" stroke="rgba(252,79,25,0.99)" stroke-width="0.3"/>
        <path id="Path_72710" data-name="Path 72710" d="M920.166,411.38a.994.994,0,0,0-.8-.686l-5.576-.94-2.611-5.011a1.03,1.03,0,0,0-1.814,0l-2.611,5.011-5.576.94a1.015,1.015,0,0,0-.553,1.715l3.96,4.038-.83,5.6a1.011,1.011,0,0,0,.409.974,1.027,1.027,0,0,0,1.051.089l5.067-2.522,5.067,2.522a1.1,1.1,0,0,0,.454.111.994.994,0,0,0,.6-.2,1.012,1.012,0,0,0,.409-.974l-.83-5.6,3.96-4.038a1.074,1.074,0,0,0,.221-1.029Zm-6.018,4a1,1,0,0,0-.277.863l.62,4.171-3.772-1.881a1.1,1.1,0,0,0-.454-.111.947.947,0,0,0-.453.111l-3.772,1.881.62-4.171a1.03,1.03,0,0,0-.277-.863l-2.954-3.009,4.148-.7a1.034,1.034,0,0,0,.73-.531l1.947-3.739,1.947,3.739a1,1,0,0,0,.73.531l4.149.7-2.932,3.009Z" transform="translate(-856.213 -359.216)" fill="rgba(252,79,25,0.99)" stroke="rgba(252,79,25,0.99)" stroke-width="0.3"/>
      </g>
      <path id="Path_88012" data-name="Path 88012" d="M761.908,106.044a4.578,4.578,0,0,0,3.474-1.593,1.019,1.019,0,1,0-1.538-1.339,2.584,2.584,0,0,1-3.894,0,1.019,1.019,0,1,0-1.538,1.339,4.7,4.7,0,0,0,3.5,1.593Z" transform="translate(-19449.906 -8102.346)" fill="rgba(252,79,25,0.99)" stroke="rgba(252,79,25,0.99)" stroke-width="0.5"/>
    </g>
  </g>
</svg>
