<svg xmlns="http://www.w3.org/2000/svg" xmlns:xlink="http://www.w3.org/1999/xlink" width="136" height="136" viewBox="0 0 136 136">
  <defs>
    <filter id="Path_73549" x="0" y="0" width="136" height="136" filterUnits="userSpaceOnUse">
      <feOffset dy="2" input="SourceAlpha"/>
      <feGaussianBlur stdDeviation="6" result="blur"/>
      <feFlood flood-opacity="0.102"/>
      <feComposite operator="in" in2="blur"/>
      <feComposite in="SourceGraphic"/>
    </filter>
  </defs>
  <g id="ic_happy_clients" transform="translate(19164 7869)">
    <g id="Group_166189" data-name="Group 166189" transform="translate(-20264 -9043)">
      <g transform="matrix(1, 0, 0, 1, 1100, 1174)" filter="url(#Path_73549)">
        <path id="Path_73549-2" data-name="Path 73549" d="M5,0H95a5,5,0,0,1,5,5V95a5,5,0,0,1-5,5H5a5,5,0,0,1-5-5V5A5,5,0,0,1,5,0Z" transform="translate(18 16)" fill="none"/>
      </g>
    </g>
    <g id="_2" data-name="2" transform="translate(-19826 -9034)">
      <g id="Group_166194" data-name="Group 166194" transform="translate(698.001 1199)">
        <g id="Group_166189-2" data-name="Group 166189">
          <g id="Group_161787" data-name="Group 161787">
            <g id="Group_161117" data-name="Group 161117">
              <g id="clients">
                <path id="Path_72700" data-name="Path 72700" d="M-484.6,168.032l-7.819-1.813v-2.046a7.918,7.918,0,0,0,1.974-2.318h1.123a5.17,5.17,0,0,0,5.161-5.181,5.147,5.147,0,0,0-1.032-3.083v-4.157A12.43,12.43,0,0,0-497.581,137a12.43,12.43,0,0,0-12.387,12.434v4.17A5.118,5.118,0,0,0-511,156.686a5.17,5.17,0,0,0,5.161,5.181h1.123a8.519,8.519,0,0,0,1.974,2.318v2.046l-7.819,1.813a6.437,6.437,0,0,0-1.471.531V162.9a3.112,3.112,0,0,0-3.1-3.108H-539.9A3.112,3.112,0,0,0-543,162.9v18.65a3.112,3.112,0,0,0,3.1,3.108h8.258v2.072h-2.065v2.072H-479V175.1A7.216,7.216,0,0,0-484.6,168.032Zm-17.342.13,2.516,1.891-2.542,1.528-.542-3.29Zm3.252,8.211h2.232l.865,10.361h-3.948Zm2.426-2.072h-2.645l-.594-1.787,1.91-1.153,1.91,1.153Zm.529-4.235,2.516-1.891.723.168-.658,3.29Zm6.413-10.271h-.271a8.443,8.443,0,0,0,.271-2.072v-4.145a3.112,3.112,0,0,1,3.1,3.108A3.112,3.112,0,0,1-489.323,159.795Zm-8.258-20.723a10.356,10.356,0,0,1,10.323,10.361v2.513a5,5,0,0,0-2.065-.44v-2.072h-2.064v.583a6.159,6.159,0,0,1-2.49,1.308c.039-.039.09-.078.129-.117l-1.458-1.464a6.055,6.055,0,0,1-2.8,1.58c.039-.039.09-.078.129-.117l-1.458-1.464a6.049,6.049,0,0,1-4.258,1.774h-.181v-2.072h-2.065v2.072a5,5,0,0,0-2.064.44v-2.526A10.356,10.356,0,0,1-497.581,139.072Zm-8.258,20.723a3.112,3.112,0,0,1-3.1-3.108,3.112,3.112,0,0,1,3.1-3.108v4.145a8.446,8.446,0,0,0,.271,2.072Zm2.065-2.072v-4.145h.181a7.994,7.994,0,0,0,2.916-.557v.557h1.213a7.994,7.994,0,0,0,2.916-.557v.557h1.213a8.11,8.11,0,0,0,3.948-1.049v5.194a6.135,6.135,0,0,1-.361,2.072h-5.832v2.072h4.606a6.161,6.161,0,0,1-4.606,2.072A6.207,6.207,0,0,1-503.774,157.723Zm6.194,8.289a8.2,8.2,0,0,0,3.1-.609v1.127l-3.1,2.331-3.1-2.331V165.4A8.2,8.2,0,0,0-497.581,166.012Zm-12.516,4.041,5.561-1.282,1.019,6.165,2.206-1.321.619,1.852-.942,11.268h-5.239v-11.4h-2.065v11.4H-514.1v-2.267a3.1,3.1,0,0,0,2.065-2.914V170.972A5.049,5.049,0,0,1-510.1,170.053Zm-13.29,14.609h7.226v2.072h-7.226ZM-539.9,182.59a1.037,1.037,0,0,1-1.032-1.036V162.9a1.037,1.037,0,0,1,1.032-1.036h24.774A1.037,1.037,0,0,1-514.1,162.9v18.65a1.037,1.037,0,0,1-1.032,1.036h-8.258v-2.072a4.149,4.149,0,0,0-4.129-4.145,4.149,4.149,0,0,0-4.129,4.145v2.072Zm10.323-2.072a2.075,2.075,0,0,1,2.065-2.072,2.074,2.074,0,0,1,2.064,2.072v6.217h-4.129Zm48.516,6.217h-5.161v-11.4h-2.065v11.4h-5.239l-.929-11.268.619-1.852,2.155,1.3,1.213-6.113,5.419,1.256a5.155,5.155,0,0,1,4,5.051v11.631Z" transform="translate(543 -124.806)" fill="rgba(252,79,25,0.99)" stroke="#fc511c" stroke-width="0.3"/>
                <path id="Path_72701" data-name="Path 72701" d="M-468.71,89.7a3.06,3.06,0,0,0-2.083-2.9l-4.014-1.334V84.152a5.045,5.045,0,0,0,2.032-4.039V78.081A5.079,5.079,0,0,0-477.855,73a5.079,5.079,0,0,0-5.081,5.081v2.032a5.045,5.045,0,0,0,2.032,4.039v1.321l-4.014,1.334A3.048,3.048,0,0,0-487,89.7v5.652h18.29ZM-480.9,78.081a3.057,3.057,0,0,1,3.048-3.048,3.057,3.057,0,0,1,3.048,3.048v2.032a3.057,3.057,0,0,1-3.048,3.048,3.057,3.057,0,0,1-3.048-3.048Zm10.161,15.242h-14.226V89.7a1.022,1.022,0,0,1,.7-.965l5.4-1.8V85.079a5.4,5.4,0,0,0,1.016.1,5.406,5.406,0,0,0,1.016-.1v1.854l5.4,1.8a1.022,1.022,0,0,1,.7.965Z" transform="translate(494.113 -68.935)" fill="rgba(252,79,25,0.99)" stroke="#fc511c" stroke-width="0.3"/>
                <path id="Path_72702" data-name="Path 72702" d="M-526.742,73.516a16.273,16.273,0,0,0,16.258-16.258A16.273,16.273,0,0,0-526.742,41,16.273,16.273,0,0,0-543,57.258,16.273,16.273,0,0,0-526.742,73.516Zm0-30.484a14.235,14.235,0,0,1,14.226,14.226,14.235,14.235,0,0,1-14.226,14.226,14.235,14.235,0,0,1-14.226-14.226A14.235,14.235,0,0,1-526.742,43.032Z" transform="translate(543 -41)" fill="rgba(252,79,25,0.99)" stroke="#fc511c" stroke-width="0.3"/>
                <path id="Path_72703" data-name="Path 72703" d="M-247,89h2.032v2.032H-247Z" transform="translate(285.213 -82.903)" fill="rgba(252,79,25,0.99)" stroke="#fc511c" stroke-width="0.3"/>
                <path id="Path_72704" data-name="Path 72704" d="M-199,89h2.032v2.032H-199Z" transform="translate(243.41 -82.903)" fill="rgba(252,79,25,0.99)" stroke="#fc511c" stroke-width="0.3"/>
                <path id="Path_72705" data-name="Path 72705" d="M-151,89h2.032v2.032H-151Z" transform="translate(201.607 -82.903)" fill="rgba(252,79,25,0.99)" stroke="#fc511c" stroke-width="0.3"/>
              </g>
            </g>
          </g>
        </g>
      </g>
    </g>
  </g>
</svg>
