<svg xmlns="http://www.w3.org/2000/svg" xmlns:xlink="http://www.w3.org/1999/xlink" width="138" height="138" viewBox="0 0 138 138">
  <defs>
    <filter id="Ellipse_3227" x="0" y="0" width="138" height="138" filterUnits="userSpaceOnUse">
      <feOffset dy="3" input="SourceAlpha"/>
      <feGaussianBlur stdDeviation="3" result="blur"/>
      <feFlood flood-opacity="0.161"/>
      <feComposite operator="in" in2="blur"/>
      <feComposite in="SourceGraphic"/>
    </filter>
  </defs>
  <g id="_12" data-name="12" transform="translate(-578 -3138)">
    <g id="Group_162565" data-name="Group 162565" transform="translate(153 1362)">
      <g id="Group_162559" data-name="Group 162559">
        <g transform="matrix(1, 0, 0, 1, 425, 1776)" filter="url(#Ellipse_3227)">
          <circle id="Ellipse_3227-2" data-name="Ellipse 3227" cx="60" cy="60" r="60" transform="translate(9 6)" fill="#fff"/>
        </g>
      </g>
    </g>
    <g id="Group_162566" data-name="Group 162566" transform="translate(-586.846 -177)">
      <g id="Group_161924" data-name="Group 161924" transform="translate(1214.845 3349)">
        <g id="Group_161921" data-name="Group 161921" transform="translate(0 0)">
          <g id="Group_161922" data-name="Group 161922" transform="translate(0 0)">
            <g id="Group_161919" data-name="Group 161919">
              <g id="smartphone_1_" data-name="smartphone (1)">
                <path id="Path_73613" data-name="Path 73613" d="M31.928,0H5.15A5.2,5.2,0,0,0,0,5.242V59.758A5.2,5.2,0,0,0,5.15,65H31.928a5.2,5.2,0,0,0,5.15-5.242V44.032h-2.06V54.516H2.06V10.484H35.018v4.194h2.06V5.242A5.2,5.2,0,0,0,31.928,0Zm3.09,56.613v3.145a3.122,3.122,0,0,1-3.09,3.145H5.15a3.122,3.122,0,0,1-3.09-3.145V56.613ZM2.06,8.387V5.242A3.122,3.122,0,0,1,5.15,2.1H31.928a3.122,3.122,0,0,1,3.09,3.145V8.387Z" fill="rgba(252,79,25,0.99)" stroke="rgba(252,79,25,0.99)" stroke-width="0.5"/>
                <rect id="Rectangle_3061" data-name="Rectangle 3061" width="8.003" height="2.463" transform="translate(14.359 58.398)" fill="rgba(252,79,25,0.99)" stroke="rgba(252,79,25,0.99)" stroke-width="1"/>
              </g>
            </g>
            <line id="Line_48" data-name="Line 48" y2="30.782" transform="translate(36.015 13.376)" fill="none" stroke="rgba(252,79,25,0.99)" stroke-width="2.8"/>
          </g>
        </g>
      </g>
      <g id="credit-card_1_" data-name="credit-card (1)" transform="translate(1220.807 3373.285)">
        <g id="Group_161803" data-name="Group 161803" transform="translate(0 0)">
          <g id="Group_161802" data-name="Group 161802" transform="translate(0 0)">
            <path id="Path_73551" data-name="Path 73551" d="M22.372,85.333H2.6a2.6,2.6,0,0,0-2.6,2.6V99.38a2.6,2.6,0,0,0,2.6,2.6h19.77a2.6,2.6,0,0,0,2.6-2.6V87.934A2.6,2.6,0,0,0,22.372,85.333ZM23.932,99.38a1.563,1.563,0,0,1-1.561,1.561H2.6A1.563,1.563,0,0,1,1.041,99.38V87.934A1.563,1.563,0,0,1,2.6,86.374h19.77a1.563,1.563,0,0,1,1.561,1.561V99.38Z" transform="translate(0 -85.333)" fill="rgba(252,79,25,0.99)" stroke="rgba(252,79,25,0.99)" stroke-width="0.5"/>
          </g>
        </g>
        <g id="Group_161805" data-name="Group 161805" transform="translate(0 3.122)">
          <g id="Group_161804" data-name="Group 161804" transform="translate(0 0)">
            <path id="Path_73552" data-name="Path 73552" d="M24.453,149.333H.52a.52.52,0,0,0-.52.52v3.122a.52.52,0,0,0,.52.52H24.453a.52.52,0,0,0,.52-.52v-3.122A.521.521,0,0,0,24.453,149.333Zm-.52,3.122H1.041v-2.081H23.932v2.081Z" transform="translate(0 -149.333)" fill="rgba(252,79,25,0.99)" stroke="rgba(252,79,25,0.99)" stroke-width="0.5"/>
          </g>
        </g>
        <g id="Group_161807" data-name="Group 161807" transform="translate(3.122 10.405)">
          <g id="Group_161806" data-name="Group 161806" transform="translate(0 0)">
            <path id="Path_73553" data-name="Path 73553" d="M70.764,298.667H64.52a.52.52,0,1,0,0,1.041h6.243a.52.52,0,1,0,0-1.041Z" transform="translate(-64 -298.667)" fill="rgba(252,79,25,0.99)" stroke="rgba(252,79,25,0.99)" stroke-width="0.5"/>
          </g>
        </g>
        <g id="Group_161809" data-name="Group 161809" transform="translate(3.122 12.486)">
          <g id="Group_161808" data-name="Group 161808" transform="translate(0 0)">
            <path id="Path_73554" data-name="Path 73554" d="M70.764,341.333H64.52a.52.52,0,1,0,0,1.04h6.243a.52.52,0,1,0,0-1.04Z" transform="translate(-64 -341.333)" fill="rgba(252,79,25,0.99)" stroke="rgba(252,79,25,0.99)" stroke-width="0.5"/>
          </g>
        </g>
        <g id="Group_161811" data-name="Group 161811" transform="translate(17.689 9.365)">
          <g id="Group_161810" data-name="Group 161810">
            <path id="Path_73555" data-name="Path 73555" d="M365.268,277.333h-1.041a1.563,1.563,0,0,0-1.561,1.561v1.041a1.563,1.563,0,0,0,1.561,1.561h1.041a1.563,1.563,0,0,0,1.561-1.561v-1.041A1.563,1.563,0,0,0,365.268,277.333Zm.52,2.6a.521.521,0,0,1-.52.52h-1.041a.521.521,0,0,1-.52-.52v-1.04a.521.521,0,0,1,.52-.52h1.041a.52.52,0,0,1,.52.52Z" transform="translate(-362.667 -277.333)" fill="rgba(252,79,25,0.99)" stroke="rgba(252,79,25,0.99)" stroke-width="0.5"/>
          </g>
        </g>
      </g>
    </g>
  </g>
</svg>
