<svg xmlns="http://www.w3.org/2000/svg" xmlns:xlink="http://www.w3.org/1999/xlink" width="138" height="138" viewBox="0 0 138 138">
  <defs>
    <filter id="Path_79353" x="0" y="0" width="138" height="138" filterUnits="userSpaceOnUse">
      <feOffset dy="3" input="SourceAlpha"/>
      <feGaussianBlur stdDeviation="3" result="blur"/>
      <feFlood flood-opacity="0.161"/>
      <feComposite operator="in" in2="blur"/>
      <feComposite in="SourceGraphic"/>
    </filter>
  </defs>
  <g id="_7" data-name="7" transform="translate(-278 -2842)">
    <g transform="matrix(1, 0, 0, 1, 278, 2842)" filter="url(#Path_79353)">
      <path id="Path_79353-2" data-name="Path 79353" d="M60,0A60,60,0,1,1,0,60,60,60,0,0,1,60,0Z" transform="translate(9 6)" fill="#fff"/>
    </g>
    <g id="Group_162557" data-name="Group 162557" transform="translate(-290 -489)">
      <g id="Group_161919" data-name="Group 161919" transform="translate(611 3365)">
        <g id="smartphone_1_" data-name="smartphone (1)">
          <path id="Path_73613" data-name="Path 73613" d="M32.409,0H5.227A5.241,5.241,0,0,0,0,5.242V59.758A5.241,5.241,0,0,0,5.227,65H32.409a5.241,5.241,0,0,0,5.227-5.242V44.032H35.546V54.516H2.091V10.484H35.546v4.194h2.091V5.242A5.241,5.241,0,0,0,32.409,0Zm3.136,56.613v3.145A3.145,3.145,0,0,1,32.409,62.9H5.227a3.145,3.145,0,0,1-3.136-3.145V56.613ZM2.091,8.387V5.242A3.145,3.145,0,0,1,5.227,2.1H32.409a3.145,3.145,0,0,1,3.136,3.145V8.387Z" fill="rgba(252,79,25,0.99)" stroke="rgba(252,79,25,0.99)" stroke-width="0.5"/>
          <rect id="Rectangle_3061" data-name="Rectangle 3061" width="8.124" height="2.5" transform="translate(14.575 58.298)" fill="rgba(252,79,25,0.99)" stroke="rgba(252,79,25,0.99)" stroke-width="0.5"/>
        </g>
        <path id="Path_73619" data-name="Path 73619" d="M87.044,26.6A16.252,16.252,0,1,0,57.911,15.911c-.017.347-.023.693-.017,1.042q.005.414.033.823a16.139,16.139,0,0,0,4.9,10.6c.309.3,2.448,2.034,2.471,2.009l.02-.02a16.09,16.09,0,0,0,7.9,2.574q.586.034,1.176.025c.231,0,.46-.012.689-.025a16.162,16.162,0,0,0,4.7-.986l8.674,1.385a.933.933,0,0,0,1-1.3ZM79.83,30.072a1.08,1.08,0,0,0-.148-.01.947.947,0,0,0-.337.062,14.368,14.368,0,0,1-13.569-1.706c-.023-.018-.045-.034-.068-.05a14.427,14.427,0,1,1,19.535-2.505.931.931,0,0,0-.133.972l1.946,4.392Zm0,0" transform="translate(-38.837 12.753)" fill="rgba(252,79,25,0.99)" stroke="rgba(252,79,25,0.99)" stroke-width="0.5"/>
      </g>
      <path id="Path_73620" data-name="Path 73620" d="M321.885,101.737h.017l12.542-.187a1.127,1.127,0,1,0-.034-2.253l-12.542.187a1.126,1.126,0,0,0,.016,2.253Zm0,0" transform="translate(320.157 3290.808)" fill="rgba(252,79,25,0.99)" stroke="rgba(252,79,25,0.99)" stroke-width="0.5"/>
      <path id="Path_73621" data-name="Path 73621" d="M328.529,146.715l-5.962.09a1.127,1.127,0,0,0,.016,2.253h.017l5.962-.089a1.127,1.127,0,1,0-.016-2.253Zm0,0" transform="translate(319.571 3250.946)" fill="rgba(252,79,25,0.99)" stroke="rgba(252,79,25,0.99)" stroke-width="0.5"/>
    </g>
  </g>
</svg>
