<svg xmlns="http://www.w3.org/2000/svg" xmlns:xlink="http://www.w3.org/1999/xlink" width="136" height="136" viewBox="0 0 136 136">
  <defs>
    <filter id="Path_73548" x="0" y="0" width="136" height="136" filterUnits="userSpaceOnUse">
      <feOffset dy="2" input="SourceAlpha"/>
      <feGaussianBlur stdDeviation="6" result="blur"/>
      <feFlood flood-opacity="0.102"/>
      <feComposite operator="in" in2="blur"/>
      <feComposite in="SourceGraphic"/>
    </filter>
  </defs>
  <g id="ic_successful_years" transform="translate(19605 7869)">
    <g id="Group_166176" data-name="Group 166176" transform="translate(-19835 -9043)">
      <g transform="matrix(1, 0, 0, 1, 230, 1174)" filter="url(#Path_73548)">
        <path id="Path_73548-2" data-name="Path 73548" d="M5,0H95a5,5,0,0,1,5,5V95a5,5,0,0,1-5,5H5a5,5,0,0,1-5-5V5A5,5,0,0,1,5,0Z" transform="translate(18 16)" fill="none"/>
      </g>
    </g>
    <g id="_1" data-name="1" transform="translate(-19834 -9042)">
      <g id="Group_166176-2" data-name="Group 166176" transform="translate(265.001 1207)">
        <g id="Group_161115" data-name="Group 161115" transform="translate(0)">
          <g id="success">
            <path id="Path_72682" data-name="Path 72682" d="M-400.691,15.628A6.306,6.306,0,0,1-407,9.319,6.315,6.315,0,0,1-400.691,3a6.307,6.307,0,0,1,6.309,6.309A6.309,6.309,0,0,1-400.691,15.628Zm0-10.522A4.212,4.212,0,0,0-404.9,9.319a4.212,4.212,0,0,0,4.213,4.213,4.212,4.212,0,0,0,4.213-4.213A4.212,4.212,0,0,0-400.691,5.106Z" transform="translate(413.32 1.108)" fill="rgba(252,79,25,0.99)" stroke="rgba(252,79,25,0.99)" stroke-width="0.5"/>
            <path id="Path_72683" data-name="Path 72683" d="M-428.594,161.257v6.3h-11.734v-14.4l-6.4-2.1v-10.8h9.6A5.305,5.305,0,0,0-431.786,135v-2.1h-29.875a5.289,5.289,0,0,0-5.328,5.247V149.7a3.175,3.175,0,0,0,3.2,3.154h2.135v18.9H-467v7.35h2.135v-5.257h14.927v5.257h2.135v-9.452h19.2v9.452h2.135V163.36h21.333v15.751H-403V161.257ZM-461.661,139.2v11.555H-463.8a1.063,1.063,0,0,1-1.068-1.051V138.147a3.175,3.175,0,0,1,3.2-3.154h27.729a3.175,3.175,0,0,1-3.2,3.154H-448.87v14.415l6.4,2.1v12.9h-3.2v-11.24l-10.667-3.943v19.367h-3.2V139.2Zm11.734,28.357v4.206H-454.2V155.422l6.4,2.366v9.778h-2.125Z" transform="translate(467 -115.111)" fill="rgba(252,79,25,0.99)" stroke="rgba(252,79,25,0.99)" stroke-width="0.5"/>
            <path id="Path_72684" data-name="Path 72684" d="M-79.2,7.036h8.415v-26.3H-64.7L-75-36-85.3-19.264h6.088v26.3ZM-81.529-21.37-75-31.987l6.53,10.617h-4.424v26.3h-4.213v-26.3Z" transform="translate(126.371 36)" fill="rgba(252,79,25,0.99)" stroke="rgba(252,79,25,0.99)" stroke-width="0.5"/>
          </g>
        </g>
      </g>
    </g>
  </g>
</svg>
