<svg xmlns="http://www.w3.org/2000/svg" xmlns:xlink="http://www.w3.org/1999/xlink" width="138" height="138" viewBox="0 0 138 138">
  <defs>
    <filter id="Ellipse_3227" x="0" y="0" width="138" height="138" filterUnits="userSpaceOnUse">
      <feOffset dy="3" input="SourceAlpha"/>
      <feGaussianBlur stdDeviation="3" result="blur"/>
      <feFlood flood-opacity="0.161"/>
      <feComposite operator="in" in2="blur"/>
      <feComposite in="SourceGraphic"/>
    </filter>
  </defs>
  <g id="_14" data-name="14" transform="translate(-1178 -3138)">
    <g id="_14-2" data-name="14">
      <g id="Group_162580" data-name="Group 162580" transform="translate(450 559)">
        <g id="Group_162568" data-name="Group 162568" transform="translate(303 803)">
          <g id="Group_162559" data-name="Group 162559">
            <g transform="matrix(1, 0, 0, 1, 425, 1776)" filter="url(#Ellipse_3227)">
              <circle id="Ellipse_3227-2" data-name="Ellipse 3227" cx="60" cy="60" r="60" transform="translate(9 6)" fill="#fff"/>
            </g>
          </g>
        </g>
      </g>
    </g>
    <g id="Group_175099" data-name="Group 175099" transform="translate(1047 2956.816)">
      <path id="Path_88349" data-name="Path 88349" d="M177,247.666q0-13.827,0-27.653a4.623,4.623,0,0,1,3.741-4.738,5.549,5.549,0,0,1,1.135-.086q18.4-.006,36.8,0a4.618,4.618,0,0,1,4.875,4.828q.006,27.653,0,55.307a4.628,4.628,0,0,1-4.91,4.862q-18.364,0-36.729,0a4.636,4.636,0,0,1-4.91-4.93Q177,261.459,177,247.666Zm1.873.018q0,13.724,0,27.448c0,2.145,1.056,3.192,3.225,3.192q18.194,0,36.387,0c2.12,0,3.191-1.062,3.191-3.16q0-27.482,0-54.964c0-2.1-1.071-3.156-3.193-3.156q-18.194,0-36.388,0c-2.17,0-3.223,1.044-3.223,3.192Q178.873,233.959,178.874,247.684Z" transform="translate(0 0)" fill="rgba(252,79,25,0.99)" stroke="#fb501b" stroke-width="0.5"/>
      <path id="Path_88351" data-name="Path 88351" d="M230.091,254.1q7.228,0,14.456,0c1.618,0,2.272.659,2.275,2.291q.006,3.765,0,7.53c0,1.6-.7,2.282-2.306,2.282q-14.456,0-28.911,0c-1.612,0-2.3-.682-2.308-2.28q-.008-3.765,0-7.53c0-1.63.66-2.293,2.272-2.293Q222.829,254.1,230.091,254.1Zm-.033,10.24c4.753,0,9.506-.01,14.259.013.541,0,.663-.151.657-.67-.028-2.376-.023-4.753,0-7.129,0-.454-.1-.611-.586-.61q-14.327.021-28.653,0c-.484,0-.592.152-.588.608.021,2.376.025,4.753,0,7.129-.006.516.112.674.656.671C220.552,264.329,225.3,264.339,230.058,264.339Z" transform="translate(-29.782 -31.934)" fill="rgba(252,79,25,0.99)" stroke="#fb501b" stroke-width="0.5"/>
      <path id="Path_88352" data-name="Path 88352" d="M217.906,351.453c-.852,0-1.7.013-2.555,0a1.884,1.884,0,0,1-2.086-2.088q-.028-2.588,0-5.177a1.88,1.88,0,0,1,2.051-2.058c1.748-.022,3.5-.025,5.244,0a1.876,1.876,0,0,1,2.022,2.023c.024,1.77.027,3.541,0,5.311a1.866,1.866,0,0,1-1.986,1.984C219.7,351.475,218.8,351.452,217.906,351.453Zm2.818-4.6c0-.785-.014-1.569.006-2.354.009-.347-.042-.524-.462-.518-1.569.024-3.138.02-4.707,0-.364,0-.453.123-.45.466q.022,2.354,0,4.707c0,.364.127.453.468.45,1.569-.015,3.138-.017,4.707,0,.369,0,.453-.131.445-.469C220.71,348.378,220.724,347.615,220.724,346.853Z" transform="translate(-29.747 -104.216)" fill="rgba(252,79,25,0.99)" stroke="#fb501b" stroke-width="0.5"/>
      <path id="Path_88353" data-name="Path 88353" d="M285.3,351.453c-.852,0-1.7.016-2.555,0a1.879,1.879,0,0,1-2.052-2.056c-.021-1.748-.024-3.5,0-5.244a1.872,1.872,0,0,1,2.022-2.021q2.621-.038,5.244,0a1.884,1.884,0,0,1,2.053,2.059c.022,1.748.026,3.5,0,5.244a1.869,1.869,0,0,1-2.022,2.017C287.1,351.472,286.2,351.453,285.3,351.453Zm.119-7.461c-.807,0-1.615.016-2.421-.007-.356-.01-.459.106-.456.458q.025,2.354,0,4.708c0,.353.1.462.458.458q2.354-.025,4.708,0c.357,0,.459-.112.455-.461q-.024-2.354,0-4.708c0-.357-.107-.465-.459-.455C286.948,344.008,286.185,343.992,285.423,343.992Z" transform="translate(-85.08 -104.216)" fill="rgba(252,79,25,0.99)" stroke="#fb501b" stroke-width="0.5"/>
      <path id="Path_88354" data-name="Path 88354" d="M357.472,346.8c0,.852.014,1.7,0,2.555a1.887,1.887,0,0,1-2.089,2.085c-1.725.018-3.451.021-5.177,0a1.879,1.879,0,0,1-2.055-2.053c-.02-1.748-.022-3.5,0-5.244a1.876,1.876,0,0,1,2.023-2.022c1.77-.026,3.541-.029,5.311,0a1.883,1.883,0,0,1,1.988,1.989c0,.045,0,.09,0,.135Q357.473,345.523,357.472,346.8Zm-7.463-.024c0,.785.013,1.57-.006,2.354-.008.336.072.475.443.47,1.569-.018,3.138-.016,4.707,0,.339,0,.474-.082.469-.448q-.026-2.353,0-4.707c0-.34-.081-.472-.448-.467-1.569.018-3.138.022-4.707,0-.417-.006-.473.167-.464.516C350.023,345.252,350.009,346.014,350.009,346.776Z" transform="translate(-140.433 -104.208)" fill="rgba(252,79,25,0.99)" stroke="#fb501b" stroke-width="0.5"/>
      <path id="Path_88355" data-name="Path 88355" d="M285.345,496.789c-.9,0-1.793.012-2.689,0a1.789,1.789,0,0,1-1.95-1.787q-.082-2.855,0-5.714a1.8,1.8,0,0,1,1.947-1.8q2.689-.025,5.379,0a1.823,1.823,0,0,1,1.957,1.865q.07,2.788,0,5.58a1.8,1.8,0,0,1-1.957,1.854C287.138,496.8,286.242,496.789,285.345,496.789Zm-.022-7.43c-.783,0-1.566.009-2.348,0-.29,0-.445.035-.441.392.019,1.588.015,3.176,0,4.764,0,.315.086.434.415.432,1.588-.013,3.176-.015,4.764,0,.371,0,.442-.145.439-.476q-.02-2.348,0-4.7c0-.322-.093-.426-.416-.418C286.934,489.372,286.129,489.359,285.324,489.359Z" transform="translate(-85.069 -223.588)" fill="rgba(252,79,25,0.99)" stroke="#fb501b" stroke-width="0.5"/>
      <path id="Path_88356" data-name="Path 88356" d="M285.3,424.108c-.874,0-1.748.014-2.622,0a1.822,1.822,0,0,1-1.991-1.894q-.061-2.755,0-5.512a1.843,1.843,0,0,1,2-1.9q2.655-.029,5.311,0a1.864,1.864,0,0,1,2,1.975q.049,2.688,0,5.378a1.837,1.837,0,0,1-2,1.953C287.092,424.122,286.2,424.108,285.3,424.108Zm.012-1.854c.784,0,1.568-.017,2.35.007.384.012.493-.119.489-.5-.02-1.544-.022-3.09,0-4.634.006-.4-.143-.475-.5-.471q-2.317.026-4.634,0c-.381-.005-.494.1-.489.487q.031,2.317,0,4.634c-.006.4.138.493.5.483C283.789,422.239,284.55,422.254,285.311,422.254Z" transform="translate(-85.061 -163.885)" fill="rgba(252,79,25,0.99)" stroke="#fb501b" stroke-width="0.5"/>
      <path id="Path_88357" data-name="Path 88357" d="M217.882,496.782c-.9,0-1.793.015-2.689,0a1.763,1.763,0,0,1-1.889-1.771q-.076-2.888.007-5.78a1.756,1.756,0,0,1,1.854-1.741q2.756-.037,5.513,0a1.81,1.81,0,0,1,1.9,1.848q.072,2.789,0,5.58a1.812,1.812,0,0,1-1.947,1.867C219.72,496.8,218.8,496.783,217.882,496.782Zm.113-1.852c.76,0,1.521-.013,2.281.006.333.008.473-.073.469-.443q-.029-2.348,0-4.7c0-.354-.1-.455-.45-.451-1.565.018-3.131.014-4.7,0-.32,0-.48.045-.475.429.021,1.565.018,3.131,0,4.7,0,.347.1.473.454.464C216.384,494.916,217.19,494.93,217.995,494.93Z" transform="translate(-29.76 -223.582)" fill="rgba(252,79,25,0.99)" stroke="#fb501b" stroke-width="0.5"/>
      <path id="Path_88358" data-name="Path 88358" d="M352.724,496.789c-.874,0-1.748.011-2.622,0a1.817,1.817,0,0,1-1.967-1.846q-.069-2.789,0-5.58a1.832,1.832,0,0,1,1.953-1.872q2.689-.027,5.379,0a1.815,1.815,0,0,1,1.959,1.857q.07,2.789,0,5.58a1.8,1.8,0,0,1-1.946,1.861C354.562,496.8,353.643,496.788,352.724,496.789Zm0-1.853c.783,0,1.566-.021,2.348.008.415.016.531-.122.525-.532-.022-1.521-.019-3.042,0-4.562,0-.364-.072-.507-.473-.5-1.565.023-3.131.019-4.7,0-.35,0-.456.093-.451.449.019,1.543.025,3.087,0,4.629-.008.432.139.529.537.514C351.246,494.916,351.985,494.936,352.723,494.936Z" transform="translate(-140.406 -223.587)" fill="rgba(252,79,25,0.99)" stroke="#fb501b" stroke-width="0.5"/>
      <path id="Path_88359" data-name="Path 88359" d="M217.909,424.114c-.9,0-1.793.016-2.689,0a1.819,1.819,0,0,1-1.965-1.918q-.054-2.721,0-5.445a1.855,1.855,0,0,1,2.022-1.943q2.621-.025,5.243,0a1.881,1.881,0,0,1,2.042,2q.041,2.655,0,5.311a1.859,1.859,0,0,1-2.033,2C219.657,424.127,218.783,424.115,217.909,424.114Zm.045-1.854c.761,0,1.523-.011,2.283.005.324.007.482-.056.477-.437-.02-1.589-.014-3.179,0-4.768,0-.279-.065-.4-.371-.394q-2.418.019-4.835,0c-.33,0-.414.113-.412.426.013,1.567.02,3.134,0,4.7-.006.411.161.482.514.473C216.387,422.248,217.171,422.261,217.954,422.261Z" transform="translate(-29.729 -163.892)" fill="rgba(252,79,25,0.99)" stroke="#fb501b" stroke-width="0.5"/>
      <path id="Path_88360" data-name="Path 88360" d="M352.818,424.095c-.919,0-1.838.019-2.756,0a1.814,1.814,0,0,1-1.925-1.892q-.057-2.755,0-5.512a1.834,1.834,0,0,1,1.934-1.9q2.722-.041,5.445,0a1.8,1.8,0,0,1,1.91,1.839q.072,2.821,0,5.646a1.793,1.793,0,0,1-1.921,1.82c-.045,0-.09,0-.134,0h-2.555Zm-.021-1.852c.783,0,1.567-.014,2.35.006.353.009.459-.114.455-.463-.016-1.567-.013-3.134,0-4.7,0-.3-.057-.44-.4-.437-1.612.015-3.224.013-4.835,0-.291,0-.385.089-.382.383.012,1.589.016,3.179,0,4.768,0,.366.129.457.466.449C351.229,422.23,352.013,422.243,352.8,422.243Z" transform="translate(-140.412 -163.874)" fill="rgba(252,79,25,0.99)" stroke="#fb501b" stroke-width="0.5"/>
    </g>
  </g>
</svg>
