<svg xmlns="http://www.w3.org/2000/svg" xmlns:xlink="http://www.w3.org/1999/xlink" width="138" height="138" viewBox="0 0 138 138">
  <defs>
    <filter id="Path_79354" x="0" y="0" width="138" height="138" filterUnits="userSpaceOnUse">
      <feOffset dy="3" input="SourceAlpha"/>
      <feGaussianBlur stdDeviation="3" result="blur"/>
      <feFlood flood-opacity="0.161"/>
      <feComposite operator="in" in2="blur"/>
      <feComposite in="SourceGraphic"/>
    </filter>
  </defs>
  <g id="ic_vehicle_tracking" transform="translate(-1178 -2841)">
    <g id="Group_175154" data-name="Group 175154">
      <g id="Group_162563" data-name="Group 162563" transform="translate(753 1065)">
        <g id="Group_162559" data-name="Group 162559">
          <g transform="matrix(1, 0, 0, 1, 425, 1776)" filter="url(#Path_79354)">
            <path id="Path_79354-2" data-name="Path 79354" d="M60,0A60,60,0,1,1,0,60,60,60,0,0,1,60,0Z" transform="translate(9 6)" fill="#fff"/>
          </g>
        </g>
      </g>
      <g id="truck" transform="translate(1201 2836)">
        <path id="Path_73651" data-name="Path 73651" d="M113.21,330.42h3.629a1.21,1.21,0,1,0,0-2.42H113.21a1.21,1.21,0,1,0,0,2.42Z" transform="translate(-88.273 -244.674)" fill="rgba(252,79,25,0.99)"/>
        <g id="Group_175155" data-name="Group 175155">
          <path id="Path_73652" data-name="Path 73652" d="M81.8,50.834H71.66a14.538,14.538,0,0,0-28.116,0H33.406a1.207,1.207,0,0,0-1.21,1.2V65.278H18.888a1.216,1.216,0,0,0-1.007.536l-2.415,3.605,0,0L8.2,80.258a1.209,1.209,0,0,0-.2.668V97.778a1.207,1.207,0,0,0,1.21,1.2h4.942a7.263,7.263,0,0,0,14.312,0h35.29a7.264,7.264,0,0,0,14.312,0H81.8a1.207,1.207,0,0,0,1.21-1.2V52.038A1.207,1.207,0,0,0,81.8,50.834ZM17.116,71.3H27.357v8.426H11.471Zm-6.7,15.648h2.42a1.2,1.2,0,1,1,0,2.407H10.42Zm10.888,15.648a4.815,4.815,0,1,1,4.839-4.815A4.827,4.827,0,0,1,21.308,102.593ZM32.2,96.575H28.464a7.263,7.263,0,0,0-14.312,0H10.42V91.76h2.42a3.611,3.611,0,1,0,0-7.222H10.42V82.13H28.567a1.207,1.207,0,0,0,1.21-1.2V70.093a1.207,1.207,0,0,0-1.21-1.2H18.729l.806-1.2H32.2ZM57.6,42.408A12.082,12.082,0,0,1,69.7,54.445c0,5.2-8.021,16.032-12.1,20.99-4.077-4.956-12.1-15.784-12.1-20.99A12.082,12.082,0,0,1,57.6,42.408ZM70.91,102.593a4.815,4.815,0,1,1,4.839-4.815A4.827,4.827,0,0,1,70.91,102.593Zm9.678-6.019H78.066a7.264,7.264,0,0,0-14.312,0H34.616v-9.63H80.588Zm0-12.037H34.616v-31.3h8.52c-.033.4-.051.8-.051,1.2,0,3.282,2.311,8.282,6.867,14.86,3.324,4.8,6.695,8.751,6.73,8.79a1.212,1.212,0,0,0,1.842,0c.035-.039,3.406-3.99,6.73-8.79,4.556-6.578,6.867-11.578,6.867-14.86,0-.4-.018-.806-.051-1.2h8.52Z" fill="rgba(252,79,25,0.99)" stroke="#fb501b" stroke-width="0.3"/>
          <path id="Path_73653" data-name="Path 73653" d="M310,100a6,6,0,1,0-6-6A6,6,0,0,0,310,100Z" transform="translate(-252.238 -40.741)" fill="none" stroke="rgba(252,79,25,0.99)" stroke-width="2.5"/>
        </g>
      </g>
    </g>
  </g>
</svg>
